<svg xmlns="http://www.w3.org/2000/svg" width="21" height="21" fill="none" viewBox="0 0 21 21">
  <symbol id="floppy-icon"> 
  <path fill="#000" d="M0 0h1.61538v1.61538H0z"/>
  <path fill="#000" d="M0 1.61523h1.61538v1.61538H0z"/>
  <path fill="#000" d="M0 3.23047h1.61538v1.61538H0z"/>
  <path fill="#000" d="M0 4.8457h1.61538v1.61538H0zm0 1.61621h1.61538v1.61538H0z"/>
  <path fill="#000" d="M0 8.07715h1.61538v1.61538H0z"/>
  <path fill="#000" d="M0 9.69238h1.61538v1.61538H0z"/>
  <path fill="#000" d="M0 11.3076h1.61538v1.61538H0z"/>
  <path fill="#000" d="M0 12.9229h1.61538v1.61538H0z"/>
  <path fill="#000" d="M0 14.5381h1.61538v1.61538H0zm0 1.6162h1.61538v1.61538H0z"/>
  <path fill="#000" d="M0 17.7695h1.61538v1.61538H0z"/>
  <path fill="#000" d="M0 19.3848h1.61538v1.61538H0zM17.7693 0v1.61538h-1.61538V0zm-1.6155 0v1.61538h-1.61538V0z"/>
  <path fill="#000" d="M14.5385 0v1.61538h-1.61538V0zm-1.6154 0v1.61538h-1.61538V0zm-1.6154 0v1.61538H9.69232V0zM9.69226 0v1.61538H8.07688V0z"/>
  <path fill="#000" d="M8.0769 0v1.61538H6.46152V0z"/>
  <path fill="#000" d="M6.46155 0v1.61538H4.84617V0z"/>
  <path fill="#000" d="M4.84619 0v1.61538H3.23081V0zM3.23071 0v1.61538H1.61533V0zM19.3846 1.61523v1.61538h-1.61538V1.61523zM4.84619 3.23047v1.61538H3.23081V3.23047z"/>
  <path fill="#000" d="M4.84619 1.61523v1.61538H3.23081V1.61523zm0 3.23047v1.61538H3.23081V4.8457zM16.1538 3.23047v1.61538h-1.61538V3.23047z"/>
  <path fill="#000" d="M16.1538 1.61523v1.61538h-1.61538V1.61523zm0 3.23047v1.61538h-1.61538V4.8457zm-3.2307-1.61523v1.61538h-1.61538V3.23047z"/>
  <path fill="#000" d="M12.9231 1.61523v1.61538h-1.61538V1.61523zm0 3.23047v1.61538h-1.61538V4.8457zm3.2307 1.61621v1.61538h-1.61538V6.46191z"/>
  <path fill="#000" d="M14.5385 6.46191v1.61538h-1.61538V6.46191zm-1.6154 0v1.61538h-1.61538V6.46191zm-1.6154 0v1.61538H9.69232V6.46191zm-1.61544 0v1.61538H8.07688V6.46191z"/>
  <path fill="#000" d="M8.0769 6.46191v1.61538H6.46152V6.46191z"/>
  <path fill="#000" d="M6.46155 6.46191v1.61538H4.84617V6.46191z"/>
  <path fill="#000" d="M4.84619 6.46191v1.61538H3.23081V6.46191zM17.7693 11.3076v1.61538h-1.61538V11.3076zm-1.6155 0v1.61538h-1.61538V11.3076z"/>
  <path fill="#000" d="M14.5385 11.3076v1.61538h-1.61538V11.3076zm-1.6154 0v1.61538h-1.61538V11.3076zm-1.6154 0v1.61538H9.69232V11.3076zm-1.61544 0v1.61538H8.07688V11.3076z"/>
  <path fill="#000" d="M8.0769 11.3076v1.61538H6.46152V11.3076z"/>
  <path fill="#000" d="M6.46155 11.3076v1.61538H4.84617V11.3076z"/>
  <path fill="#000" d="M4.84619 11.3076v1.61538H3.23081V11.3076zm12.92311 1.6153v1.61538h-1.61538V12.9229z"/>
  <path fill="#000" d="M4.84619 12.9229v1.61538H3.23081V12.9229zm12.92311 1.6152v1.61538h-1.61538V14.5381z"/>
  <path fill="#000" d="M4.84619 14.5381v1.61538H3.23081V14.5381zm12.92311 1.6162v1.61538h-1.61538V16.1543zm-12.92311 0v1.61538H3.23081V16.1543z"/>
  <path fill="#000" d="M4.84619 17.7695v1.61538H3.23081V17.7695zm12.92311 0v1.61538h-1.61538V17.7695z"/>
  <path fill="#000" d="M19.3846 19.3848v1.61538h-1.61538V19.3848z"/>
  <path fill="#000" d="M17.7693 19.3848v1.61538h-1.61538V19.3848zm-1.6155 0v1.61538h-1.61538V19.3848z"/>
  <path fill="#000" d="M14.5385 19.3848v1.61538h-1.61538V19.3848zm-1.6154 0v1.61538h-1.61538V19.3848zm-1.6154 0v1.61538H9.69232V19.3848zm-1.61544 0v1.61538H8.07688V19.3848z"/>
  <path fill="#000" d="M8.0769 19.3848v1.61538H6.46152V19.3848z"/>
  <path fill="#000" d="M6.46155 19.3848v1.61538H4.84617V19.3848z"/>
  <path fill="#000" d="M4.84619 19.3848v1.61538H3.23081V19.3848zm-1.61548 0v1.61538H1.61533V19.3848zM21 21h-1.61538v-1.61538H21z"/>
  <path fill="#000" d="M21 19.3848h-1.61538v-1.61538H21z"/>
  <path fill="#000" d="M21 17.7695h-1.61538v-1.61538H21z"/>
  <path fill="#000" d="M21 16.1543h-1.61538v-1.61538H21zm0-1.6162h-1.61538v-1.61538H21z"/>
  <path fill="#000" d="M21 12.9229h-1.61538v-1.61538H21z"/>
  <path fill="#000" d="M21 11.3076h-1.61538V9.69222H21z"/>
  <path fill="#000" d="M21 9.69238h-1.61538V8.077H21z"/>
  <path fill="#000" d="M21 8.07715h-1.61538V6.46177H21z"/>
  <path fill="#000" d="M21 6.46191h-1.61538V4.84653H21zm0-1.61621h-1.61538V3.23032H21z"/>
</symbol>
</svg>

